<svg width="58" height="40" viewBox="0 0 58 40" fill="none" xmlns="http://www.w3.org/2000/svg">
<g clip-path="url(#clip0_438_67)">
<path d="M2.98958 40H54.5104C56.1667 39.9063 57.5 38.5208 57.5 36.8437V3.15625C57.5 1.42708 56.0937 0.0104167 54.3646 0H3.13542C1.40625 0.0104167 0 1.42708 0 3.15625V36.8333C0 38.5208 1.33333 39.9063 2.98958 40Z" fill="#FEFEFE"/>
<path d="M24.7292 23.9896V40H32.7292V23.9896H57.5V15.9896H32.7292V0H24.7292V15.9896H0V23.9896H24.7292Z" fill="#C8102E"/>
<path d="M35.3958 12.9479V0H54.3854C55.6979 0.0208333 56.8229 0.84375 57.2812 2L35.3958 12.9479Z" fill="#012169"/>
<path d="M35.3958 27.0521V40H54.5104C55.7708 39.9271 56.8333 39.1146 57.2812 38L35.3958 27.0521Z" fill="#012169"/>
<path d="M22.0625 27.0521V40H2.98958C1.72917 39.9271 0.65625 39.1146 0.21875 37.9792L22.0625 27.0521Z" fill="#012169"/>
<path d="M22.0625 12.9479V0H3.11458C1.80208 0.0208333 0.666667 0.854167 0.21875 2.02083L22.0625 12.9479Z" fill="#012169"/>
<path d="M0 13.3333H7.96875L0 9.34375V13.3333Z" fill="#012169"/>
<path d="M57.5 13.3333H49.4896L57.5 9.32291V13.3333Z" fill="#012169"/>
<path d="M57.5 26.6667H49.4896L57.5 30.6771V26.6667Z" fill="#012169"/>
<path d="M0 26.6667H7.96875L0 30.6562V26.6667Z" fill="#012169"/>
<path d="M57.5 3.38541L37.6562 13.3333H42.0937L57.5 5.62499V3.38541Z" fill="#C8102E"/>
<path d="M19.8021 26.6667H15.3646L0 34.3542V36.5937L19.8438 26.6667H19.8021Z" fill="#C8102E"/>
<path d="M10.9583 13.3437H15.3958L0 5.63541V7.86457L10.9583 13.3437Z" fill="#C8102E"/>
<path d="M46.4896 26.6562H42.0521L57.5 34.3958V32.1667L46.4896 26.6562Z" fill="#C8102E"/>
<rect opacity="0.2" width="58" height="40" rx="3" fill="black"/>
</g>
<defs>
<clipPath id="clip0_438_67">
<rect width="57.5" height="40" fill="white"/>
</clipPath>
</defs>
</svg>
